<?xml version="1.0" standalone="no"?>
<!DOCTYPE svg PUBLIC "-//W3C//DTD SVG 20010904//EN"
 "http://www.w3.org/TR/2001/REC-SVG-20010904/DTD/svg10.dtd">
<svg version="1.0" xmlns="http://www.w3.org/2000/svg"
 width="300.000000pt" height="300.000000pt" viewBox="0 0 300.000000 300.000000"
 preserveAspectRatio="xMidYMid meet">
<metadata>
Created by potrace 1.10, written by Peter Selinger 2001-2011
</metadata>
<g transform="translate(0.000000,300.000000) scale(0.100000,-0.100000)"
fill="#000000" stroke="none">
<path d="M1390 2989 c-160 -12 -284 -73 -415 -204 -154 -153 -215 -299 -215
-511 0 -280 149 -517 408 -648 133 -67 340 -86 497 -46 138 35 280 128 372
243 66 82 96 136 129 232 25 72 28 94 28 220 0 123 -3 149 -26 217 -40 121
-92 204 -182 293 -168 165 -336 223 -596 204z m236 -40 c246 -56 435 -224 511
-453 23 -71 26 -98 27 -216 1 -152 -12 -209 -70 -320 -72 -137 -178 -239 -319
-307 -103 -49 -197 -66 -330 -60 -191 8 -328 69 -465 207 -129 130 -190 280
-190 471 0 210 64 364 207 500 111 105 194 148 358 184 117 25 138 25 271 -6z"/>
<path d="M795 1539 c-243 -40 -416 -234 -495 -554 -45 -187 -64 -467 -40 -596
40 -211 242 -381 449 -378 66 0 52 9 -58 34 -188 42 -312 154 -356 320 -30
116 -18 382 27 585 44 200 131 366 237 449 88 69 217 115 324 114 61 -1 62 -1
252 -121 28 -18 91 -46 140 -64 84 -31 99 -33 220 -33 117 0 138 3 209 28 99
35 145 58 224 113 35 24 66 44 69 44 4 0 15 7 25 17 23 21 150 20 227 -3 161
-47 259 -136 347 -319 83 -170 118 -373 112 -646 -4 -171 -4 -175 -35 -239
-38 -80 -129 -170 -206 -206 -30 -13 -94 -33 -142 -43 -48 -11 -89 -22 -93
-25 -3 -3 19 -6 49 -6 228 1 421 173 459 409 14 84 7 268 -15 416 -52 338
-180 559 -380 655 -86 42 -208 67 -271 57 -20 -3 -87 -38 -150 -78 -131 -82
-231 -124 -335 -140 -164 -25 -346 23 -516 139 -122 83 -156 92 -278 71z"/>
</g>
</svg>
